Input #0, mov,mp4,m4a,3gp,3g2,mj2, from '/home/hbattu/projects/huberman-gpt/huberman-audio/mp3/tmppvmyhxy7.mp4':
  Metadata:
    major_brand     : dash
    minor_version   : 0
    compatible_brands: iso6mp41
    creation_time   : 2021-03-31T10:00:20.000000Z
  Duration: 01:41:01.96, start: 0.000000, bitrate: 129 kb/s
    Stream #0:0(und): Audio: aac (LC) (mp4a / 0x6134706D), 44100 Hz, stereo, fltp, 0 kb/s (default)
    Metadata:
      creation_time   : 2021-03-31T10:00:20.000000Z
      handler_name    : ISO Media file produced by Google Inc.
Stream mapping:
  Stream #0:0 -> #0:0 (aac (native) -> mp3 (libmp3lame))
Press [q] to stop, [?] for help
[graph_0_in_0_0 @ 0x55a5a8722640] tb:1/44100 samplefmt:fltp samplerate:44100 chlayout:0x3
Output #0, mp3, to '../huberman-audio/mp3/hcuMLQVAgEg.mp3':
  Metadata:
    major_brand     : dash
    minor_version   : 0
    compatible_brands: iso6mp41
    TSSE            : Lavf58.29.100
    Stream #0:0(und): Audio: mp3 (libmp3lame), 44100 Hz, stereo, fltp, delay 1105 (default)
    Metadata:
      creation_time   : 2021-03-31T10:00:20.000000Z
      handler_name    : ISO Media file produced by Google Inc.
      encoder         : Lavc58.54.100 libmp3lame
No more output streams to write to, finishing.
size=   94719kB time=01:41:01.97 bitrate= 128.0kbits/s speed=90.7x    
[AVIOContext @ 0x55a5a8615900] Statistics: 0 seeks, 134 writeouts
video:0kB audio:94719kB subtitle:0kB other streams:0kB global headers:0kB muxing overhead: 0.000357%
Input file #0 (/home/hbattu/projects/huberman-gpt/huberman-audio/mp3/tmppvmyhxy7.mp4):
  Input stream #0:0 (audio): 261067 packets read (96991422 bytes); 261067 frames decoded (267332608 samples); 
  Total: 261067 packets (96991422 bytes) demuxed
Output file #0 (../huberman-audio/mp3/hcuMLQVAgEg.mp3):
  Output stream #0:0 (audio): 232060 frames encoded (267332608 samples); 232061 packets muxed (96992026 bytes); 
  Total: 232061 packets (96992026 bytes) muxed
[AVIOContext @ 0x55a5a863ed00] Statistics: 2 seeks, 371 writeouts
[AVIOContext @ 0x55a5a861e880] Statistics: 98106882 bytes read, 0 seeks
